<svg version="1.2" xmlns="http://www.w3.org/2000/svg" viewBox="0 0 1600 900" width="1600" height="900"><style>.a{fill:#fa7268}.b{fill:#ef5f67}.c{fill:#e34c67}.d{fill:#d53867}.e{fill:#c62368}</style><path class="a" d="m0 528l38.2-4.3c38.1-4.4 114.5-13 190.6-17 76.2-4 152.2-3.4 228.4 13.3 76.1 16.7 152.5 49.3 228.6 63.3 76.2 14 152.2 9.4 228.4 6.7 76.1-2.7 152.5-3.3 228.6-1.8 76.2 1.5 152.2 5.1 228.4-0.9 76.1-6 152.5-21.6 190.6-29.5l38.2-7.8v350h-38.2c-38.1 0-114.5 0-190.6 0-76.2 0-152.2 0-228.4 0-76.1 0-152.5 0-228.6 0-76.2 0-152.2 0-228.4 0-76.1 0-152.5 0-228.6 0-76.2 0-152.2 0-228.4 0-76.1 0-152.5 0-190.6 0h-38.2z"/><path class="b" d="m0 638l38.2-9.2c38.1-9.1 114.5-27.5 190.6-32.1 76.2-4.7 152.2 4.3 228.4 15 76.1 10.6 152.5 23 228.6 18.1 76.2-4.8 152.2-26.8 228.4-29 76.1-2.1 152.5 15.5 228.6 27.5 76.2 12 152.2 18.4 228.4 21.7 76.1 3.3 152.5 3.7 190.6 3.8l38.2 0.2v247h-38.2c-38.1 0-114.5 0-190.6 0-76.2 0-152.2 0-228.4 0-76.1 0-152.5 0-228.6 0-76.2 0-152.2 0-228.4 0-76.1 0-152.5 0-228.6 0-76.2 0-152.2 0-228.4 0-76.1 0-152.5 0-190.6 0h-38.2z"/><path class="c" d="m0 680l38.2-4c38.1-4 114.5-12 190.6-16.3 76.2-4.4 152.2-5 228.4 1.8 76.1 6.8 152.5 21.2 228.6 33.8 76.2 12.7 152.2 23.7 228.4 22.2 76.1-1.5 152.5-15.5 228.6-20.5 76.2-5 152.2-1 228.4-3.2 76.1-2.1 152.5-10.5 190.6-14.6l38.2-4.2v226h-38.2c-38.1 0-114.5 0-190.6 0-76.2 0-152.2 0-228.4 0-76.1 0-152.5 0-228.6 0-76.2 0-152.2 0-228.4 0-76.1 0-152.5 0-228.6 0-76.2 0-152.2 0-228.4 0-76.1 0-152.5 0-190.6 0h-38.2z"/><path class="d" d="m0 770l38.2-0.5c38.1-0.5 114.5-1.5 190.6 1.7 76.2 3.1 152.2 10.5 228.4 13 76.1 2.5 152.5 0.1 228.6-1.4 76.2-1.5 152.2-2.1 228.4-5.1 76.1-3 152.5-8.4 228.6-5.9 76.2 2.5 152.2 12.9 228.4 9 76.1-3.8 152.5-21.8 190.6-30.8l38.2-9v160h-38.2c-38.1 0-114.5 0-190.6 0-76.2 0-152.2 0-228.4 0-76.1 0-152.5 0-228.6 0-76.2 0-152.2 0-228.4 0-76.1 0-152.5 0-228.6 0-76.2 0-152.2 0-228.4 0-76.1 0-152.5 0-190.6 0h-38.2z"/><path class="e" d="m0 802l38.2 0.5c38.1 0.5 114.5 1.5 190.6 3.5 76.2 2 152.2 5 228.4 14.2 76.1 9.1 152.5 24.5 228.6 31 76.2 6.5 152.2 4.1 228.4-1.5 76.1-5.7 152.5-14.7 228.6-23.9 76.2-9.1 152.2-18.5 228.4-21.8 76.1-3.3 152.5-0.7 190.6 0.7l38.2 1.3v95h-38.2c-38.1 0-114.5 0-190.6 0-76.2 0-152.2 0-228.4 0-76.1 0-152.5 0-228.6 0-76.2 0-152.2 0-228.4 0-76.1 0-152.5 0-228.6 0-76.2 0-152.2 0-228.4 0-76.1 0-152.5 0-190.6 0h-38.2z"/></svg>